<svg xmlns="http://www.w3.org/2000/svg" width="24" height="24" fill="none" viewBox="0 0 24 24" id="call"><path fill="url(#paint0_linear_1855_4234)" d="M23 16.7346V18C23 20.7614 20.7614 23 18 23H16C7.71573 23 1 16.2843 1 8V6C1 3.23858 3.23858 1 6 1H7.26541C8.26071 1 9.10455 1.73186 9.24531 2.71716L9.85858 7.01005C9.94761 7.63324 9.73803 8.26197 9.29289 8.70711L7.14645 10.8536C7.05268 10.9473 6.99902 11.0749 7.00352 11.2075C7.11052 14.3562 9.64376 16.8895 12.7925 16.9965C12.9251 17.001 13.0527 16.9473 13.1464 16.8536L15.2929 14.7071C15.738 14.262 16.3668 14.0524 16.9899 14.1414L21.2828 14.7547C22.2681 14.8954 23 15.7393 23 16.7346Z"></path><path fill="#850026" d="M14 3C14 1.89543 14.8954 1 16 1H21C22.1046 1 23 1.89543 23 3V6C23 7.10457 22.1046 8 21 8H18L16.4142 9.58579C16.149 9.851 15.7893 10 15.4142 10C14.6332 10 14 9.36683 14 8.58579V3Z"></path><defs><linearGradient id="paint0_linear_1855_4234" x1="0" x2="24" y1="0" y2="24" gradientUnits="userSpaceOnUse"><stop offset=".083" stop-color="#FF6A6A"></stop><stop offset="1" stop-color="#F72257"></stop></linearGradient></defs></svg>